<svg width="20" height="20" viewBox="0 0 20 20" fill="none" xmlns="http://www.w3.org/2000/svg">
<path d="M15.8333 4.58339H10.6L10.3333 3.75006C10.1604 3.26108 9.83978 2.83798 9.41574 2.53936C8.9917 2.24074 8.48529 2.08139 7.96666 2.08339H4.16666C3.50362 2.08339 2.86773 2.34678 2.39889 2.81563C1.93005 3.28447 1.66666 3.92035 1.66666 4.58339V15.4167C1.66666 16.0798 1.93005 16.7157 2.39889 17.1845C2.86773 17.6533 3.50362 17.9167 4.16666 17.9167H15.8333C16.4964 17.9167 17.1322 17.6533 17.6011 17.1845C18.0699 16.7157 18.3333 16.0798 18.3333 15.4167V7.08339C18.3333 6.42035 18.0699 5.78447 17.6011 5.31563C17.1322 4.84678 16.4964 4.58339 15.8333 4.58339ZM16.6667 15.4167C16.6667 15.6377 16.5789 15.8497 16.4226 16.006C16.2663 16.1623 16.0543 16.2501 15.8333 16.2501H4.16666C3.94564 16.2501 3.73368 16.1623 3.5774 16.006C3.42112 15.8497 3.33332 15.6377 3.33332 15.4167V4.58339C3.33332 4.36238 3.42112 4.15042 3.5774 3.99414C3.73368 3.83786 3.94564 3.75006 4.16666 3.75006H7.96666C8.14136 3.74961 8.31179 3.80408 8.45385 3.90576C8.59591 4.00745 8.70242 4.15121 8.75832 4.31673L9.20832 5.68339C9.26423 5.84891 9.37074 5.99267 9.5128 6.09436C9.65486 6.19604 9.82529 6.25051 9.99999 6.25006H15.8333C16.0543 6.25006 16.2663 6.33786 16.4226 6.49414C16.5789 6.65042 16.6667 6.86238 16.6667 7.08339V15.4167Z" fill="currentColor"/>
</svg>
